<svg width="12" height="8" viewBox="0 0 12 8" fill="none" xmlns="http://www.w3.org/2000/svg">
<path d="M9.87461 1.13576L5.99461 5.01576L2.11461 1.13576C1.72461 0.745761 1.09461 0.745762 0.704609 1.13576C0.314609 1.52576 0.31461 2.15576 0.70461 2.54576L5.29461 7.13576C5.68461 7.52576 6.31461 7.52576 6.70461 7.13576L11.2946 2.54576C11.6846 2.15576 11.6846 1.52576 11.2946 1.13576C10.9046 0.75576 10.2646 0.74576 9.87461 1.13576Z" fill="#424243"/>
<path d="M9.87461 1.13576L5.99461 5.01576L2.11461 1.13576C1.72461 0.745761 1.09461 0.745762 0.704609 1.13576C0.314609 1.52576 0.31461 2.15576 0.70461 2.54576L5.29461 7.13576C5.68461 7.52576 6.31461 7.52576 6.70461 7.13576L11.2946 2.54576C11.6846 2.15576 11.6846 1.52576 11.2946 1.13576C10.9046 0.75576 10.2646 0.74576 9.87461 1.13576Z" fill="black" fill-opacity="0.2"/>
</svg>
